<svg width="86" height="118" viewBox="0 0 86 118" fill="none" xmlns="http://www.w3.org/2000/svg">
<path fill-rule="evenodd" clip-rule="evenodd" d="M43.9666 64.5002C32.6228 64.5002 23.4459 55.3128 23.4459 43.9785C23.4459 32.6501 32.6228 23.4548 43.9666 23.4548C55.3065 23.4548 64.4913 32.6501 64.4913 43.9785C64.4913 55.3128 55.3065 64.5002 43.9666 64.5002M42.8027 0C18.9479 0 0 20.109 0 44.9127C0 78.7257 36.2524 113.666 36.2524 113.666C41.1298 118.285 44.1595 118.661 49.3451 113.666C49.3451 113.666 86 78.7257 86 44.9127C86 20.109 66.6554 0 42.8027 0" fill="#F55A5A"/>
</svg>
